<?xml version="1.0" standalone="no"?>
<!DOCTYPE svg PUBLIC "-//W3C//DTD SVG 20010904//EN"
 "http://www.w3.org/TR/2001/REC-SVG-20010904/DTD/svg10.dtd">
<svg version="1.0" xmlns="http://www.w3.org/2000/svg"
 width="501.000000pt" height="501.000000pt" viewBox="0 0 501.000000 501.000000"
 preserveAspectRatio="xMidYMid meet">
<metadata>
Created by ChatMAN 1.14, written by Fatih YILDIZ 2001-2017
</metadata>
<g transform="translate(0.000000,501.000000) scale(0.100000,-0.100000)"
fill="#000000" stroke="none">
<path d="M2211 4754 c0 -11 3 -14 6 -6 3 7 2 16 -1 19 -3 4 -6 -2 -5 -13z"/>
<path d="M2116 4717 c3 -10 9 -15 12 -12 3 3 0 11 -7 18 -10 9 -11 8 -5 -6z"/>
<path d="M2090 4681 c0 -5 7 -14 15 -21 16 -14 18 -10 9 14 -6 17 -24 22 -24
7z"/>
<path d="M2020 4656 c0 -8 -3 -23 -6 -33 -5 -17 -5 -17 9 0 14 17 15 17 22 0
5 -11 9 -14 12 -6 5 15 -14 53 -27 53 -6 0 -10 -6 -10 -14z"/>
<path d="M1970 4638 c0 -21 0 -21 -15 -2 -10 13 -14 14 -15 5 0 -10 -4 -11
-12 -3 -10 7 -21 4 -40 -13 -16 -13 -28 -29 -28 -36 0 -8 -4 -8 -15 1 -12 10
-18 10 -30 0 -14 -12 -13 -16 6 -37 19 -19 20 -23 6 -23 -9 0 -17 -7 -17 -15
0 -8 5 -15 10 -15 6 0 10 5 10 11 0 5 5 7 11 3 7 -4 7 -9 2 -13 -15 -10 -25
-44 -10 -34 6 4 23 6 36 4 13 -1 21 1 18 6 -3 5 3 10 15 10 13 1 18 -3 14 -12
-8 -21 8 -26 30 -10 11 8 14 14 7 15 -7 0 -13 5 -13 11 0 8 4 8 15 -1 11 -9
22 -9 45 -2 18 7 30 7 30 1 0 -5 -8 -9 -19 -9 -22 0 -52 -30 -30 -30 9 -1 8
-4 -4 -11 -19 -11 -58 -3 -69 14 -4 8 -13 5 -26 -6 -23 -21 -33 -22 -26 -2 5
12 -1 14 -27 11 -19 -2 -50 -5 -69 -6 -32 -2 -30 -3 19 -13 30 -7 57 -18 59
-26 3 -10 -2 -11 -19 -6 -13 4 -21 4 -16 0 4 -5 0 -17 -10 -27 -19 -22 -41
-25 -23 -3 7 8 9 15 6 15 -16 0 -96 -41 -96 -49 0 -5 -16 -18 -35 -30 -19 -11
-35 -26 -35 -33 0 -8 -14 -29 -31 -48 -18 -19 -27 -36 -21 -38 15 -5 3 -32
-14 -32 -8 0 -14 -5 -14 -10 0 -6 -19 -38 -43 -73 -24 -34 -49 -77 -56 -94 -8
-18 -16 -33 -20 -33 -9 0 -27 -47 -41 -106 -25 -112 -15 -576 14 -623 4 -5 -2
-15 -12 -20 -33 -18 -34 -65 -2 -209 16 -76 34 -185 39 -244 6 -59 17 -138 26
-174 12 -53 13 -74 4 -102 -15 -46 -6 -96 26 -137 17 -23 25 -46 25 -73 0 -69
64 -301 109 -392 39 -80 46 -125 17 -114 -17 7 -25 -4 -86 -121 -67 -128 -129
-235 -147 -256 -8 -9 -49 -32 -91 -50 -134 -58 -322 -175 -472 -295 -41 -33
-147 -93 -285 -163 -121 -61 -290 -153 -375 -204 l-155 -94 -3 -277 -2 -276
1683 0 c1257 0 1693 3 1717 12 26 9 35 9 38 0 2 -7 8 -12 13 -12 5 0 5 10 0
23 -5 12 -15 20 -23 18 -51 -14 -79 -18 -83 -11 -5 9 29 20 63 20 12 0 22 4
22 8 0 9 -39 92 -43 92 -1 0 -17 -4 -34 -9 -19 -6 -35 -6 -38 -1 -3 5 10 12
30 16 19 3 35 10 35 16 0 5 -15 6 -34 3 -20 -4 -36 -2 -40 4 -6 10 20 16 47
12 10 -1 9 13 -3 44 -8 22 -13 24 -29 15 -26 -14 -31 -13 -31 6 0 8 4 13 9 10
5 -4 16 -3 25 0 24 9 -1 55 -28 52 -12 -2 -22 1 -23 7 -2 5 4 10 12 10 8 0 15
5 15 10 -1 6 -17 9 -38 8 l-37 -2 33 11 c40 14 42 28 2 23 -16 -2 -32 1 -35 6
-6 9 15 13 44 10 7 -2 11 4 9 11 -3 8 -17 12 -36 10 -18 -2 -32 0 -32 5 0 5
12 10 27 11 35 3 37 6 22 34 -14 25 -14 23 -25 180 -7 105 -6 108 14 108 11 0
34 -11 50 -25 17 -14 34 -25 39 -25 4 0 24 -13 43 -28 19 -16 49 -32 65 -36
47 -12 72 -43 106 -133 18 -46 36 -86 41 -89 6 -4 7 59 3 157 -7 182 -14 208
-83 301 -61 83 -173 182 -245 218 -69 34 -145 50 -156 33 -6 -10 -192 -93
-207 -93 -22 0 27 32 84 56 37 15 78 39 92 54 14 14 42 39 63 55 28 21 50 53
82 119 24 50 46 108 50 129 3 21 9 46 12 55 4 13 2 12 -10 -3 -9 -11 -17 -27
-17 -35 0 -8 -16 -48 -35 -87 -19 -40 -35 -75 -35 -79 0 -3 -11 -15 -25 -26
-13 -10 -30 -31 -37 -45 -18 -37 -42 -50 -59 -32 -21 21 -9 109 18 140 11 14
12 18 1 21 -10 4 -9 9 5 22 28 28 20 42 -20 37 -7 -1 -13 5 -13 14 0 9 -13 24
-30 33 -16 9 -30 20 -30 25 0 4 -9 7 -20 7 -11 0 -20 5 -20 11 0 5 -5 7 -10 4
-6 -3 -10 -15 -10 -26 0 -21 -16 -26 -23 -6 -3 9 -9 9 -23 1 -21 -13 -64 4
-64 25 0 10 -3 11 -14 2 -10 -8 -20 -6 -42 11 -16 13 -30 26 -32 30 -2 5 -10
8 -18 8 -8 0 -14 5 -14 11 0 6 -9 8 -20 4 -11 -4 -20 -2 -20 4 0 15 -91 102
-100 96 -11 -7 -63 16 -73 33 -7 11 -12 10 -28 -4 -18 -16 -19 -16 -19 9 0 21
4 25 18 20 13 -5 12 -2 -5 13 -12 10 -30 24 -40 31 -17 11 -16 12 6 12 13 1
29 9 36 18 7 9 28 18 46 19 101 7 222 24 235 35 15 12 19 60 7 73 -5 4 -9 12
-9 17 -1 5 -2 14 -3 19 -2 14 -38 12 -44 -2 -3 -7 -5 1 -4 19 0 41 -24 78 -52
80 -12 1 -49 11 -82 23 -33 11 -70 18 -83 14 -16 -4 -25 0 -29 10 -4 9 -3 15
1 15 4 -1 9 0 12 1 21 8 46 7 57 -2 9 -7 13 -7 13 1 0 7 5 9 10 6 6 -3 10 -1
10 5 0 6 11 8 27 6 15 -3 33 0 41 6 22 19 72 17 141 -3 35 -10 78 -19 95 -19
18 0 67 -9 111 -21 86 -22 102 -18 85 25 -10 27 -60 56 -97 56 -10 1 -53 18
-96 39 -45 22 -87 37 -98 34 -10 -3 -19 -1 -19 5 0 6 -10 12 -22 14 -13 2 -22
9 -20 17 2 8 -3 18 -10 22 -16 11 -97 10 -163 0 -34 -6 -52 -5 -57 2 -11 18 2
28 30 22 20 -4 35 1 56 20 16 14 32 25 36 25 3 0 12 16 19 35 7 20 18 35 24
34 7 -1 19 0 27 3 8 3 34 11 58 19 45 13 72 40 72 72 0 10 11 29 24 42 14 14
26 34 28 46 2 18 -5 25 -39 36 -24 8 -43 19 -43 24 0 4 -7 6 -16 2 -13 -5 -31
2 -106 38 -10 5 -23 9 -30 9 -7 0 -24 14 -37 30 -13 17 -29 30 -37 30 -8 0
-14 8 -14 18 0 12 -3 13 -8 4 -13 -20 -49 38 -55 89 -3 24 -9 63 -15 86 -7 34
-5 54 10 100 11 31 17 68 15 81 -3 14 0 41 5 60 8 30 7 38 -8 49 -16 12 -15
13 15 19 23 5 29 10 22 17 -22 22 -12 39 18 32 l29 -6 12 69 c12 67 12 72 -11
109 -13 21 -23 39 -21 41 6 6 -12 59 -28 82 -9 14 -20 32 -23 40 -3 8 -6 -6
-6 -32 -1 -51 -19 -100 -34 -95 -6 2 -17 25 -24 51 -8 27 -21 56 -29 64 -14
13 -15 8 -9 -45 5 -41 4 -63 -4 -67 -6 -4 -36 7 -66 24 -30 17 -55 28 -55 23
0 -4 -5 0 -11 10 -7 12 -17 15 -35 11 -20 -5 -24 -2 -24 15 0 12 -5 21 -11 21
-6 0 -9 7 -5 15 7 20 -10 65 -32 82 -12 11 -14 16 -4 19 15 7 16 24 1 24 -12
0 -69 60 -69 73 0 4 -12 4 -27 1 -16 -4 -24 -3 -20 2 5 5 12 9 15 9 12 0 32
16 32 24 0 4 -14 6 -30 3 -26 -4 -29 -2 -23 14 10 28 33 60 33 46 0 -6 6 -12
14 -12 23 0 37 -24 23 -40 -10 -10 -9 -12 6 -6 10 3 25 6 33 6 8 0 14 5 14 10
0 6 -8 10 -17 8 -13 -2 -18 4 -19 22 0 14 -3 31 -7 37 -4 6 -3 23 3 38 6 15 7
32 3 38 -4 7 -6 19 -5 28 2 9 -4 22 -13 29 -8 7 -15 19 -15 26 0 8 -4 14 -10
14 -5 0 -10 16 -10 35 0 29 -6 39 -35 57 -40 26 -43 34 -15 41 16 4 19 10 12
29 -5 12 -7 29 -5 36 5 14 33 16 33 2 0 -5 -4 -10 -10 -10 -5 0 -10 -5 -10
-12 0 -9 3 -9 12 0 19 19 37 14 31 -8 -4 -13 0 -20 9 -20 17 0 49 32 52 52 1
7 5 19 9 26 10 15 -3 15 -24 -1 -9 -7 -14 -18 -12 -24 6 -17 3 -16 -38 4 l-34
18 35 6 c19 4 27 7 18 8 -11 0 -15 7 -12 15 3 8 1 17 -5 21 -6 3 -11 11 -11
17 0 6 11 1 25 -12 30 -28 33 -22 5 10 -14 16 -27 21 -45 18 -14 -3 -25 -1
-25 3 0 5 5 9 10 9 11 0 6 43 -10 84 -6 17 -6 26 0 26 6 0 10 5 10 10 0 6 -9
10 -20 10 -14 0 -20 -7 -20 -22z m-13 -94 c-3 -3 -12 -4 -19 -1 -8 3 -5 6 6 6
11 1 17 -2 13 -5z m83 -504 c0 -5 -7 -10 -15 -10 -8 0 -15 5 -15 10 0 6 7 10
15 10 8 0 15 -4 15 -10z m390 -756 c0 -8 -5 -12 -10 -9 -6 4 -8 11 -5 16 9 14
15 11 15 -7z m239 -953 c9 -6 10 -11 2 -15 -13 -8 -31 1 -31 15 0 11 11 11 29
0z m-1052 -658 c-2 -16 -4 -5 -4 22 0 28 2 40 4 28 2 -13 2 -35 0 -50z m1443
-583 c0 -5 -5 -10 -11 -10 -5 0 -7 5 -4 10 3 6 8 10 11 10 2 0 4 -4 4 -10z
m34 -101 c21 -33 36 -63 32 -66 -8 -9 -27 18 -20 28 2 4 1 9 -3 11 -12 5 -64
88 -56 88 5 -1 26 -28 47 -61z m0 45 c3 -8 11 -12 16 -9 6 4 19 -4 30 -17 11
-13 19 -19 20 -15 0 11 -32 43 -50 50 -8 3 4 6 27 6 23 1 45 -4 49 -11 5 -7 0
-9 -14 -6 -15 4 -19 2 -15 -8 3 -8 9 -11 14 -8 5 3 6 -3 2 -12 -4 -12 -3 -15
5 -10 8 5 10 2 5 -9 -4 -12 -8 -13 -13 -5 -5 8 -10 2 -14 -14 -3 -14 -11 -26
-17 -26 -6 0 -7 5 -4 10 3 6 2 10 -3 10 -5 0 -14 10 -20 23 -7 12 -19 32 -28
45 -9 12 -12 22 -6 22 5 0 13 -7 16 -16z m-124 -14 c6 -11 8 -20 6 -20 -3 0
-10 9 -16 20 -6 11 -8 20 -6 20 3 0 10 -9 16 -20z m94 -31 c15 -22 25 -43 21
-47 -4 -4 -10 -2 -12 5 -2 7 -15 28 -28 48 -34 49 -17 44 19 -6z m-60 -15 c5
-14 4 -15 -9 -4 -17 14 -19 20 -6 20 5 0 12 -7 15 -16z m43 -10 c-3 -3 -12 -4
-19 -1 -8 3 -5 6 6 6 11 1 17 -2 13 -5z m-23 -30 c3 -8 2 -12 -4 -9 -6 3 -10
10 -10 16 0 14 7 11 14 -7z m50 -19 c3 -8 1 -15 -3 -15 -5 0 -11 7 -15 15 -3
8 -1 15 3 15 5 0 11 -7 15 -15z m36 0 c7 -8 9 -15 4 -15 -5 0 -3 -4 4 -9 7 -4
15 -14 16 -22 2 -8 15 -40 30 -72 28 -63 31 -71 17 -63 -5 4 -20 2 -33 -3 -21
-8 -20 -9 10 -9 33 1 59 -11 29 -13 -30 -2 -35 -4 -44 -12 -4 -5 1 -8 12 -7
11 1 29 1 40 0 l20 -1 -20 -9 c-19 -8 -19 -8 5 -18 l25 -11 -30 -2 c-23 -1
-25 -3 -9 -6 25 -5 41 -43 18 -43 -17 0 -17 -5 -4 -31 8 -15 7 -19 -5 -19 -8
0 -16 5 -16 10 -3 19 -5 25 -16 45 -6 11 -11 22 -11 25 -1 15 -63 165 -74 177
-8 10 -6 13 6 13 9 0 16 -7 16 -15 0 -8 5 -15 10 -15 15 0 12 11 -15 58 -13
23 -20 42 -15 42 4 0 11 -7 14 -16 3 -8 11 -12 17 -9 7 5 4 13 -7 26 -9 10
-13 19 -8 19 5 0 2 5 -6 10 -8 5 -10 10 -4 10 6 0 17 -7 24 -15z m-43 -45 c17
-32 18 -40 7 -40 -9 0 -12 5 -9 10 3 6 2 10 -3 10 -5 0 -12 8 -16 18 -3 9 -9
23 -12 30 -3 6 -2 12 3 12 4 0 18 -18 30 -40z m98 21 c-3 -6 -11 -11 -16 -11
-5 0 -4 6 3 14 14 16 24 13 13 -3z m-758 -43 c-3 -8 -6 -5 -6 6 -1 11 2 17 5
13 3 -3 4 -12 1 -19z m773 -26 c0 -15 -2 -15 -10 -2 -13 20 -13 33 0 25 6 -3
10 -14 10 -23z m-130 8 c0 -5 -4 -10 -10 -10 -5 0 -10 5 -10 10 0 6 5 10 10
10 6 0 10 -4 10 -10z m-675 -198 c-4 -26 -10 -41 -12 -34 -3 7 -2 34 2 60 4
26 10 41 12 34 3 -7 2 -34 -2 -60z m1215 -32 c0 -13 -1 -13 -10 0 -5 8 -10 22
-10 30 0 13 1 13 10 0 5 -8 10 -22 10 -30z m-365 -20 c3 -5 1 -10 -4 -10 -6 0
-11 5 -11 10 0 6 2 10 4 10 3 0 8 -4 11 -10z m5 -61 c0 -10 -39 -18 -45 -9 -2
4 -3 9 0 11 7 7 45 5 45 -2z m8 -34 c-4 -11 -38 -15 -38 -4 0 8 21 18 33 15 5
-1 7 -6 5 -11z m82 -173 c0 -4 -9 -8 -20 -9 -11 -1 -20 2 -20 8 0 5 9 9 20 9
11 0 20 -4 20 -8z m20 -72 c0 -5 -9 -10 -20 -10 -11 0 -20 5 -20 10 0 6 9 10
20 10 11 0 20 -4 20 -10z m50 -109 c0 -4 -17 -8 -37 -9 l-38 -2 30 14 c29 13
45 12 45 -3z m26 -33 c4 -7 4 -10 -1 -6 -4 4 -16 3 -27 -3 -23 -13 -39 -2 -18
11 21 13 38 12 46 -2z"/>
<path d="M3111 1015 c-1 -5 8 -21 19 -35 11 -14 20 -20 20 -14 0 7 -9 22 -20
35 -10 13 -19 20 -19 14z"/>
<path d="M3110 848 c0 -9 5 -20 11 -23 17 -11 20 0 4 21 -13 17 -14 17 -15 2z"/>
<path d="M3140 780 c0 -5 5 -10 11 -10 5 0 7 5 4 10 -3 6 -8 10 -11 10 -2 0
-4 -4 -4 -10z"/>
<path d="M3125 750 c3 -5 8 -10 11 -10 2 0 4 5 4 10 0 6 -5 10 -11 10 -5 0 -7
-4 -4 -10z"/>
<path d="M3180 620 c0 -5 5 -10 11 -10 5 0 7 5 4 10 -3 6 -8 10 -11 10 -2 0
-4 -4 -4 -10z"/>
<path d="M2030 4550 c0 -6 7 -10 15 -10 8 0 15 2 15 4 0 2 -7 6 -15 10 -8 3
-15 1 -15 -4z"/>
<path d="M2107 4479 c-4 -16 -2 -17 14 -8 23 12 23 15 5 22 -8 3 -16 -2 -19
-14z"/>
<path d="M1744 4420 c-23 -9 -41 -30 -27 -30 5 0 19 7 31 16 12 8 22 10 22 5
0 -6 5 -11 11 -11 13 0 7 23 -7 26 -5 2 -19 -1 -30 -6z"/>
<path d="M1575 4260 c-3 -6 1 -7 9 -4 18 7 21 14 7 14 -6 0 -13 -4 -16 -10z"/>
<path d="M2050 4240 c0 -5 5 -10 11 -10 5 0 7 5 4 10 -3 6 -8 10 -11 10 -2 0
-4 -4 -4 -10z"/>
<path d="M2150 4110 c-34 -7 -34 -7 -5 -8 17 0 39 3 50 8 24 10 4 10 -45 0z"/>
<path d="M2498 4033 c7 -3 16 -2 19 1 4 3 -2 6 -13 5 -11 0 -14 -3 -6 -6z"/>
<path d="M2596 3695 c3 -43 10 -90 15 -103 5 -14 9 -48 8 -77 -3 -69 47 -175
119 -260 29 -33 52 -65 52 -72 0 -14 37 -52 60 -61 36 -16 120 -78 120 -89 0
-7 4 -13 8 -13 4 0 14 6 21 13 14 12 13 6 -5 -60 -4 -14 -2 -23 5 -23 6 0 11
6 11 13 0 8 11 19 24 27 16 8 23 18 19 29 -4 13 -3 13 5 2 6 -8 8 -20 6 -26
-4 -9 14 -12 69 -10 77 3 102 9 92 26 -4 5 2 6 12 2 16 -6 16 -5 4 10 -18 23
-7 50 18 42 13 -4 20 0 24 16 4 17 10 19 29 14 22 -7 22 -7 6 12 -25 27 -23
33 12 33 16 0 40 5 54 11 20 10 29 9 43 -2 11 -9 14 -10 9 -1 -5 8 -1 12 10
12 14 0 15 3 6 12 -7 7 -12 21 -12 33 0 33 -55 112 -99 141 -23 15 -41 31 -41
36 0 5 -13 14 -30 19 -16 6 -30 17 -30 25 0 8 -7 14 -16 14 -10 0 -14 6 -10
15 3 10 -1 15 -14 15 -10 0 -22 9 -25 20 -7 24 -43 45 -67 41 -10 -1 -18 3
-18 8 0 6 -5 11 -11 11 -6 0 -34 11 -62 25 -32 17 -53 22 -57 15 -3 -5 -36 21
-73 60 -37 38 -70 69 -73 69 -3 0 -11 7 -18 17 -9 11 -19 14 -35 9 -21 -6 -23
-11 -17 -51 9 -70 -26 -58 -84 29 -16 25 -31 36 -42 33 -9 -2 -19 1 -22 8 -3
6 -3 -25 0 -69z"/>
<path d="M2758 3763 c7 -3 16 -2 19 1 4 3 -2 6 -13 5 -11 0 -14 -3 -6 -6z"/>
<path d="M3751 3083 c-21 -33 -39 -120 -41 -200 -1 -53 32 -4 59 87 14 49 24
150 14 150 -4 0 -19 -17 -32 -37z"/>
<path d="M2865 2820 c8 -26 22 -47 28 -39 3 2 -4 18 -15 34 -18 27 -19 28 -13
5z"/>
<path d="M2940 2690 c0 -5 5 -10 11 -10 5 0 7 5 4 10 -3 6 -8 10 -11 10 -2 0
-4 -4 -4 -10z"/>
<path d="M2965 2649 c-9 -14 -2 -20 14 -10 8 6 9 11 3 15 -6 3 -14 1 -17 -5z"/>
<path d="M2986 2597 c3 -10 9 -15 12 -12 3 3 0 11 -7 18 -10 9 -11 8 -5 -6z"/>
<path d="M3010 2550 c0 -5 5 -10 11 -10 5 0 7 5 4 10 -3 6 -8 10 -11 10 -2 0
-4 -4 -4 -10z"/>
<path d="M3365 1495 c11 -57 30 -113 87 -250 119 -284 152 -400 169 -595 9
-109 17 -147 38 -195 15 -33 34 -67 42 -75 8 -8 45 -69 83 -135 38 -66 84
-144 102 -172 l34 -53 545 0 545 0 0 302 0 301 -51 96 c-67 125 -101 174 -169
242 -69 69 -116 95 -206 109 -62 10 -154 42 -299 102 -66 28 -561 194 -649
219 -38 10 -87 19 -109 19 -34 0 -47 8 -104 62 l-65 63 7 -40z"/>
</g>
</svg>
